<svg id="Layer_1" data-name="Layer 1" xmlns="http://www.w3.org/2000/svg" viewBox="0 0 32.03 36.93"><defs><style>.cls-1{fill:#1af2de;stroke:#231f20;stroke-miterlimit:10;}</style></defs><polygon class="cls-1" points="31.53 9.54 31.53 13.13 28.37 14.94 22.25 11.38 16.05 14.92 22.17 18.49 15.93 22.06 9.81 18.49 3.7 14.93 0.5 13.06 0.5 9.53 3.68 7.71 9.94 11.36 16.15 7.82 9.88 4.16 16.16 0.58 22.42 4.23 28.52 7.79 31.53 9.54"/><polygon class="cls-1" points="31.53 20.26 31.53 27.45 22.16 32.81 15.95 36.35 9.73 32.73 0.5 27.34 0.5 20.18 9.76 25.58 15.94 29.18 22.1 25.66 28.34 22.09 31.53 20.26"/></svg>